<svg xmlns="http://www.w3.org/2000/svg"
     width="860" height="160" viewBox="0 0 860 160">
  <rect width="100%" height="100%" fill="#0d1117" rx="8"
        stroke="#30363d" stroke-width="1"/>
  <style>
    text { font-family: ui-monospace,'Cascadia Code','Source Code Pro',Menlo,Consolas,'DejaVu Sans Mono',monospace; }
  </style>

  <!-- title -->
  <text x="20" y="25" font-size="11" fill="#58a6ff" letter-spacing="1">
    atul@github ~ $ git stats --overview</text>

  <!-- metrics -->
  <g><text x="102" y="50" text-anchor="middle" font-size="18" font-weight="bold" fill="#e6edf3">1</text>
<text x="102" y="67" text-anchor="middle" font-size="9" fill="#8b949e">Stars</text></g><g><text x="266" y="50" text-anchor="middle" font-size="18" font-weight="bold" fill="#e6edf3">1</text>
<text x="266" y="67" text-anchor="middle" font-size="9" fill="#8b949e">Forks</text></g><g><text x="430" y="50" text-anchor="middle" font-size="18" font-weight="bold" fill="#e6edf3">51</text>
<text x="430" y="67" text-anchor="middle" font-size="9" fill="#8b949e">Repos</text></g><g><text x="594" y="50" text-anchor="middle" font-size="18" font-weight="bold" fill="#e6edf3">14</text>
<text x="594" y="67" text-anchor="middle" font-size="9" fill="#8b949e">Followers</text></g><g><text x="758" y="50" text-anchor="middle" font-size="18" font-weight="bold" fill="#e6edf3">2,497</text>
<text x="758" y="67" text-anchor="middle" font-size="9" fill="#8b949e">Contributions</text></g>

  <!-- language bar -->
  <g transform="translate(20, 80)">
    <rect x="0" y="0" width="341" height="8" rx="2" fill="#f1e05a"/>
<rect x="341" y="0" width="182" height="8" rx="2" fill="#2b7489"/>
<rect x="523" y="0" width="136" height="8" rx="2" fill="#e34c26"/>
<rect x="659" y="0" width="68" height="8" rx="2" fill="#3572A5"/>
<rect x="727" y="0" width="45" height="8" rx="2" fill="#8b949e"/>
<rect x="772" y="0" width="22" height="8" rx="2" fill="#00ADD8"/>
  </g>

  <!-- legend -->
  <rect x="20" y="110" width="8" height="8" rx="2" fill="#f1e05a"/><text x="31" y="118" font-size="9" fill="#8b949e">JavaScript 41.7%</text><rect x="132" y="110" width="8" height="8" rx="2" fill="#2b7489"/><text x="143" y="118" font-size="9" fill="#8b949e">TypeScript 22.2%</text><rect x="244" y="110" width="8" height="8" rx="2" fill="#e34c26"/><text x="255" y="118" font-size="9" fill="#8b949e">HTML 16.7%</text><rect x="320" y="110" width="8" height="8" rx="2" fill="#3572A5"/><text x="331" y="118" font-size="9" fill="#8b949e">Python 8.3%</text><rect x="408" y="110" width="8" height="8" rx="2" fill="#8b949e"/><text x="419" y="118" font-size="9" fill="#8b949e">MDX 5.6%</text><rect x="478" y="110" width="8" height="8" rx="2" fill="#00ADD8"/><text x="489" y="118" font-size="9" fill="#8b949e">Go 2.8%</text>

  <!-- updated stamp -->
  <text x="840" y="154" text-anchor="end"
        font-size="8" fill="#30363d">updated 2026-07-23</text>
</svg>